<?xml version="1.0" encoding="utf-8"?>
<!-- Generator: Adobe Illustrator 19.0.0, SVG Export Plug-In . SVG Version: 6.00 Build 0)  -->
<svg version="1.1" id="Layer_1" xmlns="http://www.w3.org/2000/svg" xmlns:xlink="http://www.w3.org/1999/xlink" x="0px" y="0px"
	 viewBox="0 0 237 59.3" style="enable-background:new 0 0 237 59.3;" xml:space="preserve">
<style type="text/css">
	.st0{fill:#414042;}
	.st1{fill:#DE284C;}
	.st2{fill:#B91F3F;}
	.st3{fill:#F7941E;}
</style>
<g id="XMLID_1_">
	<g id="XMLID_60_">
		<path id="XMLID_61_" class="st0" d="M54.1,22.4l-1.2,1.8c-0.3-0.3-0.7-0.5-1.3-0.7s-1.3-0.3-1.9-0.3c-1.4,0-2.4,0.5-3.2,1.4
			c-0.8,0.9-1.2,2.3-1.2,3.9c0,1.6,0.4,2.9,1.2,3.8c0.8,0.9,1.9,1.3,3.4,1.3c1.1,0,2.2-0.4,3.4-1.3l1,2.1c-1.3,0.9-3,1.3-5,1.3
			c-1.9,0-3.5-0.6-4.8-1.9s-1.9-3-1.9-5.2c0-2.2,0.7-4,2-5.4c1.3-1.4,3.1-2,5.3-2c0.7,0,1.5,0.2,2.4,0.5
			C53.1,21.7,53.7,22.1,54.1,22.4z"/>
		<path id="XMLID_63_" class="st0" d="M57,31.3V15.5h2.5v15.4c0,0.8,0.2,1.3,0.7,1.8c0.4,0.4,1,0.6,1.7,0.6v2.2
			C58.7,35.6,57,34.2,57,31.3z"/>
		<path id="XMLID_65_" class="st0" d="M66,35.3v-12h-1.9v-2.1h4.4v14.1H66z M67.4,15.9c0.4,0,0.8,0.2,1.1,0.5
			c0.3,0.3,0.5,0.7,0.5,1.1c0,0.4-0.2,0.8-0.5,1.1c-0.3,0.3-0.7,0.5-1.1,0.5c-0.4,0-0.8-0.2-1.1-0.5c-0.3-0.3-0.5-0.7-0.5-1.1
			s0.1-0.8,0.4-1.1S66.9,15.9,67.4,15.9z"/>
		<path id="XMLID_68_" class="st0" d="M83.1,22.4l-1.2,1.8c-0.3-0.3-0.7-0.5-1.3-0.7c-0.6-0.2-1.3-0.3-1.9-0.3
			c-1.4,0-2.4,0.5-3.2,1.4c-0.8,0.9-1.2,2.3-1.2,3.9c0,1.6,0.4,2.9,1.2,3.8c0.8,0.9,1.9,1.3,3.4,1.3c1.1,0,2.3-0.4,3.4-1.3l1,2.1
			c-1.3,0.9-3,1.3-5,1.3c-1.9,0-3.5-0.6-4.8-1.9s-1.9-3-1.9-5.2c0-2.2,0.6-4,1.9-5.4c1.3-1.4,3.1-2,5.3-2c0.7,0,1.5,0.2,2.4,0.5
			C82,21.7,82.7,22.1,83.1,22.4z"/>
		<path id="XMLID_70_" class="st0" d="M94.8,35.3l-4.4-7l-2.2,2.2v4.8h-2.5V15.5h2.5v12.3l5.4-6.5h2.9l-4.5,5.3l5.5,8.7H94.8z"/>
		<path id="XMLID_72_" class="st1" d="M115.6,35.3v-8.9c0-2.2-1-3.3-2.9-3.3c-0.6,0-1.2,0.2-1.7,0.6c-0.5,0.4-0.9,0.8-1.1,1.3v10.4
			h-2.5v-10c0-0.7-0.3-1.2-0.8-1.6c-0.5-0.4-1.2-0.6-2.1-0.6c-0.5,0-1,0.2-1.6,0.6s-1,0.8-1.2,1.3v10.4h-2.5V21.2h1.6l0.8,1.6
			c1-1.3,2.2-1.9,3.6-1.9c2,0,3.4,0.6,4.2,1.9c0.3-0.5,0.8-1,1.6-1.3c0.8-0.4,1.5-0.5,2.4-0.5c1.5,0,2.6,0.4,3.4,1.3
			c0.8,0.9,1.2,2.1,1.2,3.6v9.4H115.6z"/>
		<path id="XMLID_74_" class="st1" d="M127,37.7c-0.3,0.9-1,1.6-2,2.2s-2.2,0.9-3.5,0.9v-2.2c1,0,1.9-0.2,2.7-0.7s1.1-1.1,1.1-1.8
			c0-0.8-0.1-1.5-0.4-2.3s-0.6-1.7-1-2.8l-3.8-9.8h2.5l4.1,10.9l3.7-10.9h2.5L127,37.7z"/>
		<path id="XMLID_76_" class="st0" d="M137,34.3l-0.9,1.3h-1.2V15.5h2.5v6.8c0.2-0.3,0.7-0.6,1.3-0.9c0.7-0.3,1.3-0.4,1.9-0.4
			c1.9,0,3.5,0.7,4.7,2c1.2,1.3,1.8,3,1.8,5c0,2.3-0.6,4.2-1.8,5.5s-2.8,2-4.9,2c-0.7,0-1.3-0.1-2-0.4
			C137.9,34.9,137.4,34.6,137,34.3z M137.4,24.2v8.1c0,0.1,0.3,0.4,0.9,0.7s1.1,0.5,1.4,0.5c1.7,0,2.9-0.4,3.7-1.2
			c0.7-0.8,1.1-2.2,1.1-4.1c0-1.6-0.4-2.8-1.3-3.7c-0.9-0.9-2-1.3-3.5-1.3c-0.3,0-0.7,0.1-1.3,0.4C137.9,23.7,137.6,24,137.4,24.2z"
			/>
		<path id="XMLID_80_" class="st0" d="M149,28.2c0-2.2,0.6-3.9,1.8-5.3c1.2-1.3,2.7-2,4.6-2c2,0,3.6,0.6,4.7,1.9
			c1.1,1.3,1.7,3.1,1.7,5.3c0,2.3-0.6,4.1-1.7,5.4s-2.7,2-4.6,2c-2,0-3.6-0.7-4.7-2C149.5,32.3,149,30.5,149,28.2z M151.6,28.2
			c0,3.5,1.2,5.3,3.7,5.3c1.2,0,2.1-0.5,2.7-1.4c0.7-0.9,1-2.2,1-3.9c0-3.5-1.2-5.2-3.7-5.2c-1.1,0-2,0.5-2.7,1.4
			C151.9,25.3,151.6,26.6,151.6,28.2z"/>
		<path id="XMLID_83_" class="st0" d="M163.4,28.2c0-2.2,0.6-3.9,1.8-5.3c1.2-1.3,2.7-2,4.6-2c2,0,3.6,0.6,4.7,1.9s1.7,3.1,1.7,5.3
			c0,2.3-0.6,4.1-1.7,5.4c-1.1,1.3-2.7,2-4.6,2c-2,0-3.6-0.7-4.7-2C164,32.3,163.4,30.5,163.4,28.2z M166,28.2
			c0,3.5,1.2,5.3,3.7,5.3c1.2,0,2.1-0.5,2.7-1.4c0.7-0.9,1-2.2,1-3.9c0-3.5-1.2-5.2-3.7-5.2c-1.1,0-2,0.5-2.7,1.4
			C166.4,25.3,166,26.6,166,28.2z"/>
		<path id="XMLID_89_" class="st0" d="M187.8,35.3l-4.4-7l-2.2,2.2v4.8h-2.5V15.5h2.5v12.3l5.4-6.5h2.9l-4.5,5.3l5.5,8.7H187.8z"/>
		<path id="XMLID_91_" class="st0" d="M193.5,35.3v-12h-1.9v-2.1h4.4v14.1H193.5z M194.9,15.9c0.4,0,0.8,0.2,1.1,0.5
			c0.3,0.3,0.5,0.7,0.5,1.1c0,0.4-0.2,0.8-0.5,1.1c-0.3,0.3-0.7,0.5-1.1,0.5c-0.4,0-0.8-0.2-1.1-0.5c-0.3-0.3-0.5-0.7-0.5-1.1
			s0.1-0.8,0.4-1.1S194.5,15.9,194.9,15.9z"/>
		<path id="XMLID_94_" class="st0" d="M208.6,35.3v-8.2c0-1.5-0.2-2.5-0.7-3.1c-0.5-0.6-1.2-0.9-2.3-0.9c-0.6,0-1.2,0.2-1.8,0.5
			c-0.6,0.3-1.1,0.8-1.4,1.3v10.5H200V21.2h1.7l0.8,1.8c0.8-1.4,2.2-2.1,4-2.1c3.1,0,4.6,1.9,4.6,5.6v8.7H208.6z"/>
		<path id="XMLID_96_" class="st0" d="M214.2,39.2l1.4-2c1.5,1,2.8,1.5,4,1.5c1.1,0,2-0.2,2.7-0.6c0.7-0.4,1-0.9,1-1.5
			c0-1.1-0.8-1.7-2.5-1.7c-0.3,0-0.8,0.1-1.5,0.2c-0.7,0.1-1.3,0.2-1.7,0.2c-2,0-3-0.8-3-2.3c0-0.5,0.2-0.9,0.7-1.3
			c0.5-0.4,1-0.6,1.7-0.8c-2-0.9-3-2.5-3-4.8c0-1.5,0.5-2.7,1.5-3.7c1-1,2.3-1.5,3.8-1.5c1.4,0,2.5,0.3,3.2,0.9l1.2-1.5l1.6,1.5
			l-1.5,1.1c0.6,0.8,1,1.9,1,3.3c0,1.4-0.4,2.6-1.3,3.6c-0.9,1-2,1.5-3.5,1.7l-2.1,0.2c-0.2,0-0.6,0.1-1,0.3
			c-0.4,0.2-0.6,0.4-0.6,0.6c0,0.4,0.4,0.5,1.3,0.5c0.4,0,1-0.1,1.8-0.2s1.4-0.2,1.8-0.2c1.4,0,2.5,0.3,3.2,1
			c0.8,0.7,1.2,1.6,1.2,2.8c0,1.3-0.6,2.3-1.7,3.1c-1.2,0.8-2.6,1.2-4.4,1.2c-0.9,0-1.9-0.2-2.9-0.5S214.8,39.6,214.2,39.2z
			 M219.5,23c-0.9,0-1.6,0.3-2.1,0.9s-0.8,1.4-0.8,2.2c0,1,0.3,1.8,0.8,2.4c0.5,0.6,1.2,1,2.1,1c0.9,0,1.6-0.3,2.1-0.9
			c0.5-0.6,0.7-1.4,0.7-2.5c0-0.9-0.3-1.6-0.8-2.2C220.9,23.3,220.3,23,219.5,23z"/>
	</g>
	<g id="XMLID_15_">
		<g id="XMLID_18_">
			<g id="XMLID_118_">
				<path id="XMLID_120_" class="st2" d="M20.1,21.4c1.4-1.5,3.3-2.4,5.5-2.4c4.1,0,7.4,3.3,7.4,7.4c0,1.2-0.3,2.4-0.9,3.4l5.5,3.9
					c1.3-2.1,2.1-4.7,2.1-7.3c0-7.8-6.3-14.2-14.2-14.2c-4.4,0-8.4,2-11,5.2L20.1,21.4z"/>
				<path id="XMLID_119_" class="st1" d="M31.5,30.8c-1.4,1.8-3.5,3-5.9,3c-4.1,0-7.4-3.3-7.4-7.4c0-1.5,0.5-2.9,1.2-4.1l-5.5-3.9
					c-1.5,2.3-2.4,5-2.4,8c0,2.7,0.8,5.3,2.1,7.4c0.7,1.2,10.9,12.4,12,13.3h-0.1l0,0h0.1c1-0.8,10.8-11.3,11.5-12.4L31.5,30.8z"/>
			</g>
		</g>
		<polyline id="XMLID_17_" class="st3" points="27,28 30.8,26.3 22,23.6 25.3,32.2 27,28 		"/>
	</g>
</g>
</svg>
